<mxfile host="65bd71144e">
    <diagram id="uj2qHg58nU80toS25AK5" name="Page-1">
        <mxGraphModel dx="2037" dy="1342" Mesh="1" MeshSize="10" guides="1" tooltips="1" connect="1" arrows="1" fold="1" page="1" pageScale="1" pageWidth="900" pageHeight="1600" background="none" math="0" shadow="0">
            <root>
                <mxCell id="0"/>
                <mxCell id="1" parent="0"/>
                <mxCell id="5" value="" style="rounded=0;whiteSpace=wrap;html=1;fontColor=#000000;fillColor=none;" parent="1" vertex="1">
                    <mxGeometry x="80" y="80" width="1120" height="480" as="geometry"/>
                </mxCell>
                <mxCell id="6" value="" style="rounded=0;whiteSpace=wrap;html=1;fillColor=none;noLabel=1;fontColor=none;" parent="1" vertex="1">
                    <mxGeometry width="1280" height="640" as="geometry"/>
                </mxCell>
                <mxCell id="3" value="&lt;font style=&quot;font-size: 436px&quot; color=&quot;#ffe059&quot;&gt;&lt;i style=&quot;background-color: rgb(0 , 47 , 167)&quot;&gt;Sp&lt;/i&gt;&lt;b&gt;&lt;font style=&quot;font-size: 436px&quot;&gt;DB&lt;/font&gt;&lt;/b&gt;&lt;/font&gt;" style="text;html=1;align=center;verticalAlign=middle;whiteSpace=wrap;rounded=1;strokeColor=#000000;" parent="1" vertex="1">
                    <mxGeometry x="81" y="133.5" width="1119" height="373" as="geometry"/>
                </mxCell>
            </root>
        </mxGraphModel>
    </diagram>
</mxfile>